<svg width="21" height="19" viewBox="0 0 21 19" fill="none" xmlns="http://www.w3.org/2000/svg">
<path d="M1.22656 11.75H16.5383C18.3293 11.75 19.7862 13.1892 19.7862 14.9583C19.7862 16.7275 18.3293 18.1667 16.5383 18.1667C14.7473 18.1667 13.2903 16.7275 13.2903 14.9583V14.5" stroke="#828282" strokeWidth="1.5" strokeMiterlimit="10" strokeLinecap="round" strokeLinejoin="round"/>
<path d="M1.22656 9.00016H16.5383C18.32 9.00016 19.7862 7.561 19.7862 5.79183C19.7862 4.03183 18.32 2.5835 16.5383 2.5835C15.6776 2.58591 14.8529 2.92471 14.2444 3.52587C13.6358 4.12702 13.2928 4.94167 13.2903 5.79183V6.25016" stroke="#828282" strokeWidth="1.5" strokeMiterlimit="10" strokeLinecap="round" strokeLinejoin="round"/>
<path d="M1.22656 6.25003H8.01012C8.50384 6.25003 8.98647 6.10541 9.39698 5.83446C9.80749 5.56351 10.1274 5.1784 10.3164 4.72783C10.5053 4.27726 10.5548 3.78146 10.4584 3.30313C10.3621 2.82481 10.1244 2.38544 9.77525 2.04059C9.42614 1.69573 8.98135 1.46089 8.49712 1.36574C8.01289 1.2706 7.51097 1.31943 7.05484 1.50606C6.5987 1.69269 6.20884 2.00875 5.93454 2.41425C5.66025 2.81975 5.51385 3.2965 5.51385 3.78419V4.13253" stroke="#828282" strokeWidth="1.5" strokeMiterlimit="10" strokeLinecap="round" strokeLinejoin="round"/>
</svg>
