<svg width="20" height="24" fill="none" xmlns="http://www.w3.org/2000/svg"><g clipPath="url(#a)"><path d="M18.4 8.448h-.8V3.456a.393.393 0 0 0-.4-.384H2.8c-.22 0-.4.172-.4.384v4.992h-.8c-.22 0-.4.172-.4.384 0 .212.18.384.4.384H4a.399.399 0 0 0 .316-.16L1.62 17.164a.373.373 0 0 0 .058.343c.075.1.196.158.323.158h16c.128 0 .249-.06.323-.158a.366.366 0 0 0 .056-.345l-3.482-10.25H16.8v1.537H16c-.22 0-.4.172-.4.384 0 .212.18.384.4.384h2.4c.22 0 .4-.172.4-.384a.393.393 0 0 0-.4-.384ZM16.8 3.84v.768h-1.6V3.84h1.6Zm-2.4 0v.768h-1.6V3.84h1.6Zm-1.6 2.304v-.768h1.6v.768h-1.6Zm-9.6-.768h1.6v.768H3.2v-.768Zm7.2 0H12v.768h-1.6v-.768Zm-.8.768H8v-.768h1.6v.768Zm-2.4 0H5.6v-.768h1.6v.768Zm-.536.768L3.825 15.36h-.766l2.81-8.448h.795Zm-.192 3.072H9.6v5.376H4.666l1.806-5.376Zm3.928 0h3.091l1.832 5.376H10.4V9.984Zm-3.67-.768.774-2.304h4.942l.784 2.304h-6.5ZM12 3.84v.768h-1.6V3.84H12Zm-2.4 0v.768H8V3.84h1.6Zm-2.4 0v.768H5.6V3.84h1.6Zm-2.4 0v.768H3.2V3.84h1.6ZM4 8.448h-.8V6.912h1.83l-.634 1.903A.39.39 0 0 0 4 8.448Zm-1.197 7.68h.764l-.257.768h-.762l.255-.768Zm1.347.768.257-.768H9.6v.768H4.15Zm6.25-.768h5.186l.26.768H10.4v-.768Zm6.29.768-.262-.768h.76l.26.768h-.757Zm.237-1.536h-.76l-2.881-8.448h.769l2.872 8.448ZM15.2 6.144v-.768h1.6v.768h-1.6Z" fill="#000"/></g><defs><clipPath id="a"><path fill="#fff" d="M0 0h20v24H0z"/></clipPath></defs></svg>