<svg width="21" height="20" viewBox="0 0 21 20" fill="none" xmlns="http://www.w3.org/2000/svg">
<path d="M12.7631 1.59424H6.24868C3.938 1.59424 3.42761 2.73091 3.13065 4.12424L2.08203 9.08341H16.9298L15.8811 4.12424C15.5842 2.73091 15.0738 1.59424 12.7631 1.59424V1.59424Z" stroke="#828282" strokeWidth="1.5" strokeLinecap="round" strokeLinejoin="round"/>
<path d="M19.5492 17.085C19.6513 18.1575 18.779 19.0833 17.6654 19.0833H15.9208C14.9186 19.0833 14.7794 18.6617 14.6031 18.1392L14.4175 17.5892C14.1577 16.8375 13.9906 16.3333 12.6543 16.3333H7.90305C6.56675 16.3333 6.37187 16.9017 6.13988 17.5892L5.95428 18.1392C5.77796 18.6617 5.63877 19.0833 4.63654 19.0833H2.89194C1.77836 19.0833 0.906051 18.1575 1.00813 17.085L1.5278 11.5025C1.65772 10.1275 1.92683 9 4.35815 9H16.1992C18.6305 9 18.8997 10.1275 19.0296 11.5025L19.5492 17.085Z" stroke="#828282" strokeWidth="1.5" strokeLinecap="round" strokeLinejoin="round"/>
<path d="M2.08228 6.3335H1.1543" stroke="#828282" strokeWidth="1.5" strokeLinecap="round" strokeLinejoin="round"/>
<path d="M17.8582 6.3335H16.9302" stroke="#828282" strokeWidth="1.5" strokeLinecap="round" strokeLinejoin="round"/>
<path d="M9.50635 1.75V3.58333" stroke="#828282" strokeWidth="1.5" strokeLinecap="round" strokeLinejoin="round"/>
<path d="M8.11426 3.5835H10.8982" stroke="#828282" strokeWidth="1.5" strokeLinecap="round" strokeLinejoin="round"/>
<path d="M3.93848 12.75H6.72243" stroke="#828282" strokeWidth="1.5" strokeLinecap="round" strokeLinejoin="round"/>
<path d="M12.29 12.75H15.074" stroke="#828282" strokeWidth="1.5" strokeLinecap="round" strokeLinejoin="round"/>
</svg>
