<svg width="21" height="20" viewBox="0 0 21 20" fill="none" xmlns="http://www.w3.org/2000/svg">
<path d="M8.71494 1.58519L2.28401 6.67269C1.56018 7.24102 1.09619 8.44185 1.25395 9.34019L2.48817 16.6369C2.71088 17.9385 3.97294 18.9927 5.30924 18.9927H15.7027C17.0297 18.9927 18.301 17.9294 18.5237 16.6369L19.7579 9.34019C19.9064 8.44185 19.4424 7.24102 18.7279 6.67269L12.297 1.59435C11.304 0.806021 9.6986 0.806021 8.71494 1.58519V1.58519Z" stroke="#828282" strokeWidth="1.5" strokeLinecap="round" strokeLinejoin="round"/>
<path d="M8.53906 12.182C9.7176 11.0728 11.2952 11.0728 12.4737 12.182" stroke="#828282" strokeWidth="1.5" strokeLinecap="round" strokeLinejoin="round"/>
<path d="M14.4401 10.2387C13.9619 9.77461 13.4102 9.39068 12.8069 9.10208C12.0879 8.75822 11.2996 8.57959 10.5008 8.57959C9.70206 8.57959 8.91368 8.75822 8.19477 9.10208C7.61942 9.37708 7.07191 9.75291 6.56152 10.2387" stroke="#828282" strokeWidth="1.5" strokeLinecap="round" strokeLinejoin="round"/>
<path d="M10.5015 14.5835H10.5098" stroke="#828282" strokeWidth="2" strokeLinecap="round" strokeLinejoin="round"/>
</svg>
