<svg width="19" height="20" viewBox="0 0 19 20" fill="none" xmlns="http://www.w3.org/2000/svg">
<path d="M9.55583 16.4168C10.5283 16.4168 11.4609 16.0305 12.1486 15.3429C12.8362 14.6553 13.2225 13.7226 13.2225 12.7502C13.2225 11.7777 12.8362 10.8451 12.1486 10.1574C11.4609 9.4698 10.5283 9.0835 9.55583 9.0835C8.58337 9.0835 7.65074 9.4698 6.9631 10.1574C6.27547 10.8451 5.88916 11.7777 5.88916 12.7502C5.88916 13.7226 6.27547 14.6553 6.9631 15.3429C7.65074 16.0305 8.58337 16.4168 9.55583 16.4168V16.4168Z" stroke="#828282" stroke-width="1.5" stroke-miterlimit="10" stroke-linecap="round" strokeLinejoin="round"/>
<path d="M8.12598 12.7504L8.72181 13.3462C8.89598 13.5204 9.18014 13.5295 9.35431 13.3554L10.986 11.8521" stroke="#828282" stroke-width="1.5" stroke-linecap="round" strokeLinejoin="round"/>
<path d="M6.80575 19.1668H12.3058C15.9908 19.1668 16.6508 17.691 16.8433 15.8943L17.5308 10.3943C17.7783 8.15766 17.1366 6.3335 13.2224 6.3335H5.88908C1.97492 6.3335 1.33325 8.15766 1.58075 10.3943L2.26825 15.8943C2.46075 17.691 3.12075 19.1668 6.80575 19.1668Z" stroke="#828282" stroke-width="1.5" stroke-miterlimit="10" stroke-linecap="round" strokeLinejoin="round"/>
<path d="M5.43066 6.03108V5.14191C5.43066 3.07941 7.08983 1.05357 9.15233 0.861075C9.72541 0.804771 10.3039 0.869076 10.8506 1.04985C11.3974 1.23063 11.9002 1.52387 12.3267 1.9107C12.7533 2.29753 13.0941 2.76939 13.3273 3.2959C13.5605 3.82241 13.6809 4.39191 13.6807 4.96774V6.23274" stroke="#828282" stroke-width="1.5" stroke-miterlimit="10" stroke-linecap="round" strokeLinejoin="round"/>
</svg>
