<svg width="21" height="20" viewBox="0 0 21 20" fill="none" xmlns="http://www.w3.org/2000/svg">
<path d="M10.528 19.1668C15.5907 19.1668 19.6947 15.0629 19.6947 10.0002C19.6947 4.93741 15.5907 0.833496 10.528 0.833496C5.46524 0.833496 1.36133 4.93741 1.36133 10.0002C1.36133 15.0629 5.46524 19.1668 10.528 19.1668V19.1668Z" stroke="#828282" strokeWidth="1.5" strokeLinecap="round" strokeLinejoin="round"/>
<path d="M10.5557 14.125C11.6497 14.125 12.6989 13.6904 13.4725 12.9168C14.2461 12.1432 14.6807 11.094 14.6807 10C14.6807 8.90598 14.2461 7.85677 13.4725 7.08318C12.6989 6.3096 11.6497 5.875 10.5557 5.875C9.46165 5.875 8.41244 6.3096 7.63885 7.08318C6.86526 7.85677 6.43066 8.90598 6.43066 10C6.43066 11.094 6.86526 12.1432 7.63885 12.9168C8.41244 13.6904 9.46165 14.125 10.5557 14.125V14.125Z" stroke="#828282" strokeWidth="1.5" strokeLinecap="round" strokeLinejoin="round"/>
<path d="M4.04688 3.51953L7.29187 6.75536" stroke="#828282" strokeWidth="1.5" strokeLinecap="round" strokeLinejoin="round"/>
<path d="M4.04736 16.4809L7.29236 13.2451" stroke="#828282" strokeWidth="1.5" strokeLinecap="round" strokeLinejoin="round"/>
<path d="M17.0179 16.4809L13.7729 13.2451" stroke="#828282" strokeWidth="1.5" strokeLinecap="round" strokeLinejoin="round"/>
<path d="M17.0179 3.51953L13.7729 6.75536" stroke="#828282" strokeWidth="1.5" strokeLinecap="round" strokeLinejoin="round"/>
</svg>
