<svg width="21" height="20" viewBox="0 0 21 20" fill="none" xmlns="http://www.w3.org/2000/svg">
<path d="M6.41211 15.8208L9.25378 18.0208C9.62044 18.3874 10.4454 18.5708 10.9954 18.5708H14.4788C15.5788 18.5708 16.7704 17.7458 17.0454 16.6458L19.2454 9.9541C19.7038 8.67076 18.8788 7.57076 17.5038 7.57076H13.8371C13.2871 7.57076 12.8288 7.11243 12.9204 6.47076L13.3788 3.53743C13.5621 2.71243 13.0121 1.79576 12.1871 1.52076C11.4538 1.24576 10.5371 1.61243 10.1704 2.16243L6.41211 7.7541" stroke="#828282" stroke-width="1.5" stroke-miterlimit="10"/>
<path d="M1.7373 15.8207V6.83737C1.7373 5.55404 2.2873 5.0957 3.57064 5.0957H4.48731C5.77064 5.0957 6.32064 5.55404 6.32064 6.83737V15.8207C6.32064 17.104 5.77064 17.5624 4.48731 17.5624H3.57064C2.2873 17.5624 1.7373 17.104 1.7373 15.8207Z" stroke="#828282" stroke-width="1.5" stroke-linecap="round" strokeLinejoin="round"/>
</svg>
